<svg fill="currentColor" width="200" height="200" viewBox="0 0 200 200" xmlns="http://www.w3.org/2000/svg">
  <polygon points="50,50 0,50 50,100" />
  <polygon points="50,150 0,150 50,200" />
  <polygon points="150,50 100,50 150,100" />
  <polygon points="150,150 100,150 150,200" />
  <polygon points="200,0 100,0 200,100" />
  <polygon points="200,200 200,100 100,100" />
  <polygon points="100,100 100,0 0,0" />
  <polygon points="100,200 100,100 0,100" />
  <polygon points="0,25 25,25 25,50" />
  <polygon points="0,75 25,75 25,100" />
  <polygon points="50,75 75,75 75,100" />
</svg>